<mxfile host="app.diagrams.net" modified="2024-07-08T14:14:15.079Z" agent="Mozilla/5.0 (Windows NT 10.0; Win64; x64) AppleWebKit/537.36 (KHTML, like Gecko) Chrome/126.0.0.0 Safari/537.36 Edg/126.0.0.0" etag="A1OQT_gpk7MA93SvrNwV" version="24.6.4" type="device">
  <diagram name="Page-1" id="r9-oKDH6c2IHwobVPv9_">
    <mxGraphModel dx="2063" dy="1731" grid="1" gridSize="10" guides="1" tooltips="1" connect="1" arrows="1" fold="1" page="1" pageScale="1" pageWidth="850" pageHeight="1100" math="0" shadow="0">
      <root>
        <mxCell id="0" />
        <mxCell id="1" parent="0" />
        <mxCell id="PK2-CjucyVVqtXHw0Cxr-1" value="Professor" style="whiteSpace=wrap;html=1;align=center;" parent="1" vertex="1">
          <mxGeometry x="10" y="290" width="100" height="40" as="geometry" />
        </mxCell>
        <mxCell id="PK2-CjucyVVqtXHw0Cxr-2" value="Email" style="ellipse;whiteSpace=wrap;html=1;align=center;" parent="1" vertex="1">
          <mxGeometry x="-220" y="350" width="100" height="40" as="geometry" />
        </mxCell>
        <mxCell id="PK2-CjucyVVqtXHw0Cxr-3" value="Family" style="ellipse;whiteSpace=wrap;html=1;align=center;" parent="1" vertex="1">
          <mxGeometry x="20" y="450" width="100" height="40" as="geometry" />
        </mxCell>
        <mxCell id="PK2-CjucyVVqtXHw0Cxr-4" value="Password" style="ellipse;whiteSpace=wrap;html=1;align=center;" parent="1" vertex="1">
          <mxGeometry x="-140" y="230" width="100" height="40" as="geometry" />
        </mxCell>
        <mxCell id="PK2-CjucyVVqtXHw0Cxr-5" value="&lt;u&gt;pId&lt;/u&gt;" style="ellipse;whiteSpace=wrap;html=1;align=center;" parent="1" vertex="1">
          <mxGeometry x="-190" y="290" width="100" height="40" as="geometry" />
        </mxCell>
        <mxCell id="PK2-CjucyVVqtXHw0Cxr-6" value="Name" style="ellipse;whiteSpace=wrap;html=1;align=center;" parent="1" vertex="1">
          <mxGeometry x="-190" y="405" width="100" height="40" as="geometry" />
        </mxCell>
        <mxCell id="PK2-CjucyVVqtXHw0Cxr-7" value="Phonenumber" style="ellipse;whiteSpace=wrap;html=1;align=center;" parent="1" vertex="1">
          <mxGeometry x="-90" y="435" width="100" height="40" as="geometry" />
        </mxCell>
        <mxCell id="PK2-CjucyVVqtXHw0Cxr-17" value="" style="endArrow=none;html=1;rounded=0;" parent="1" source="PK2-CjucyVVqtXHw0Cxr-7" target="PK2-CjucyVVqtXHw0Cxr-1" edge="1">
          <mxGeometry relative="1" as="geometry">
            <mxPoint x="20" y="240" as="sourcePoint" />
            <mxPoint x="180" y="240" as="targetPoint" />
          </mxGeometry>
        </mxCell>
        <mxCell id="PK2-CjucyVVqtXHw0Cxr-18" value="" style="endArrow=none;html=1;rounded=0;" parent="1" source="PK2-CjucyVVqtXHw0Cxr-3" target="PK2-CjucyVVqtXHw0Cxr-1" edge="1">
          <mxGeometry relative="1" as="geometry">
            <mxPoint x="-40" y="440" as="sourcePoint" />
            <mxPoint x="120" y="440" as="targetPoint" />
          </mxGeometry>
        </mxCell>
        <mxCell id="PK2-CjucyVVqtXHw0Cxr-19" value="" style="endArrow=none;html=1;rounded=0;entryX=0;entryY=1;entryDx=0;entryDy=0;" parent="1" source="PK2-CjucyVVqtXHw0Cxr-6" target="PK2-CjucyVVqtXHw0Cxr-1" edge="1">
          <mxGeometry relative="1" as="geometry">
            <mxPoint x="-60" y="179" as="sourcePoint" />
            <mxPoint x="100" y="179" as="targetPoint" />
          </mxGeometry>
        </mxCell>
        <mxCell id="PK2-CjucyVVqtXHw0Cxr-20" value="" style="endArrow=none;html=1;rounded=0;entryX=0;entryY=0.75;entryDx=0;entryDy=0;exitX=1;exitY=0.5;exitDx=0;exitDy=0;" parent="1" source="PK2-CjucyVVqtXHw0Cxr-2" target="PK2-CjucyVVqtXHw0Cxr-1" edge="1">
          <mxGeometry relative="1" as="geometry">
            <mxPoint x="-106.90328924211076" y="349.859597468732" as="sourcePoint" />
            <mxPoint x="150" y="210" as="targetPoint" />
            <Array as="points" />
          </mxGeometry>
        </mxCell>
        <mxCell id="PK2-CjucyVVqtXHw0Cxr-21" value="" style="endArrow=none;html=1;rounded=0;entryX=0;entryY=0.5;entryDx=0;entryDy=0;" parent="1" source="PK2-CjucyVVqtXHw0Cxr-5" target="PK2-CjucyVVqtXHw0Cxr-1" edge="1">
          <mxGeometry relative="1" as="geometry">
            <mxPoint x="160" y="209.5" as="sourcePoint" />
            <mxPoint x="320" y="209.5" as="targetPoint" />
          </mxGeometry>
        </mxCell>
        <mxCell id="PK2-CjucyVVqtXHw0Cxr-22" value="" style="endArrow=none;html=1;rounded=0;exitX=1;exitY=1;exitDx=0;exitDy=0;entryX=0;entryY=0;entryDx=0;entryDy=0;" parent="1" source="PK2-CjucyVVqtXHw0Cxr-4" target="PK2-CjucyVVqtXHw0Cxr-1" edge="1">
          <mxGeometry relative="1" as="geometry">
            <mxPoint x="70" y="170" as="sourcePoint" />
            <mxPoint x="230" y="170" as="targetPoint" />
          </mxGeometry>
        </mxCell>
        <mxCell id="PK2-CjucyVVqtXHw0Cxr-23" value="Student" style="whiteSpace=wrap;html=1;align=center;" parent="1" vertex="1">
          <mxGeometry x="1110" y="255" width="100" height="45" as="geometry" />
        </mxCell>
        <mxCell id="PK2-CjucyVVqtXHw0Cxr-24" value="Email" style="ellipse;whiteSpace=wrap;html=1;align=center;" parent="1" vertex="1">
          <mxGeometry x="1290" y="280" width="100" height="40" as="geometry" />
        </mxCell>
        <mxCell id="PK2-CjucyVVqtXHw0Cxr-25" value="Family" style="ellipse;whiteSpace=wrap;html=1;align=center;" parent="1" vertex="1">
          <mxGeometry x="1110" y="415" width="100" height="40" as="geometry" />
        </mxCell>
        <mxCell id="PK2-CjucyVVqtXHw0Cxr-26" value="Password" style="ellipse;whiteSpace=wrap;html=1;align=center;" parent="1" vertex="1">
          <mxGeometry x="1280" y="215" width="100" height="40" as="geometry" />
        </mxCell>
        <mxCell id="PK2-CjucyVVqtXHw0Cxr-27" value="&lt;u&gt;sId&lt;/u&gt;" style="ellipse;whiteSpace=wrap;html=1;align=center;" parent="1" vertex="1">
          <mxGeometry x="1240" y="165" width="100" height="40" as="geometry" />
        </mxCell>
        <mxCell id="PK2-CjucyVVqtXHw0Cxr-28" value="Name" style="ellipse;whiteSpace=wrap;html=1;align=center;" parent="1" vertex="1">
          <mxGeometry x="1280" y="345" width="100" height="40" as="geometry" />
        </mxCell>
        <mxCell id="PK2-CjucyVVqtXHw0Cxr-29" value="Phonenumber" style="ellipse;whiteSpace=wrap;html=1;align=center;" parent="1" vertex="1">
          <mxGeometry x="1220" y="395" width="100" height="40" as="geometry" />
        </mxCell>
        <mxCell id="PK2-CjucyVVqtXHw0Cxr-30" value="" style="endArrow=none;html=1;rounded=0;" parent="1" source="PK2-CjucyVVqtXHw0Cxr-29" target="PK2-CjucyVVqtXHw0Cxr-23" edge="1">
          <mxGeometry relative="1" as="geometry">
            <mxPoint x="1030" y="200" as="sourcePoint" />
            <mxPoint x="1190" y="200" as="targetPoint" />
          </mxGeometry>
        </mxCell>
        <mxCell id="PK2-CjucyVVqtXHw0Cxr-31" value="" style="endArrow=none;html=1;rounded=0;" parent="1" source="PK2-CjucyVVqtXHw0Cxr-25" target="PK2-CjucyVVqtXHw0Cxr-23" edge="1">
          <mxGeometry relative="1" as="geometry">
            <mxPoint x="970" y="400" as="sourcePoint" />
            <mxPoint x="1130" y="400" as="targetPoint" />
          </mxGeometry>
        </mxCell>
        <mxCell id="PK2-CjucyVVqtXHw0Cxr-32" value="" style="endArrow=none;html=1;rounded=0;entryX=0.75;entryY=1;entryDx=0;entryDy=0;" parent="1" source="PK2-CjucyVVqtXHw0Cxr-28" target="PK2-CjucyVVqtXHw0Cxr-23" edge="1">
          <mxGeometry relative="1" as="geometry">
            <mxPoint x="950" y="139" as="sourcePoint" />
            <mxPoint x="1110" y="139" as="targetPoint" />
          </mxGeometry>
        </mxCell>
        <mxCell id="PK2-CjucyVVqtXHw0Cxr-33" value="" style="endArrow=none;html=1;rounded=0;entryX=1;entryY=0.5;entryDx=0;entryDy=0;" parent="1" source="PK2-CjucyVVqtXHw0Cxr-24" target="PK2-CjucyVVqtXHw0Cxr-23" edge="1">
          <mxGeometry relative="1" as="geometry">
            <mxPoint x="1000" y="140" as="sourcePoint" />
            <mxPoint x="1160" y="170" as="targetPoint" />
            <Array as="points" />
          </mxGeometry>
        </mxCell>
        <mxCell id="PK2-CjucyVVqtXHw0Cxr-34" value="" style="endArrow=none;html=1;rounded=0;entryX=1;entryY=0;entryDx=0;entryDy=0;" parent="1" source="PK2-CjucyVVqtXHw0Cxr-27" target="PK2-CjucyVVqtXHw0Cxr-23" edge="1">
          <mxGeometry relative="1" as="geometry">
            <mxPoint x="1170" y="169.5" as="sourcePoint" />
            <mxPoint x="1330" y="169.5" as="targetPoint" />
          </mxGeometry>
        </mxCell>
        <mxCell id="PK2-CjucyVVqtXHw0Cxr-35" value="" style="endArrow=none;html=1;rounded=0;exitX=0;exitY=1;exitDx=0;exitDy=0;entryX=1;entryY=0.25;entryDx=0;entryDy=0;" parent="1" source="PK2-CjucyVVqtXHw0Cxr-26" target="PK2-CjucyVVqtXHw0Cxr-23" edge="1">
          <mxGeometry relative="1" as="geometry">
            <mxPoint x="1080" y="130" as="sourcePoint" />
            <mxPoint x="1240" y="130" as="targetPoint" />
          </mxGeometry>
        </mxCell>
        <mxCell id="PK2-CjucyVVqtXHw0Cxr-38" value="Course" style="whiteSpace=wrap;html=1;align=center;" parent="1" vertex="1">
          <mxGeometry x="350" y="280" width="100" height="40" as="geometry" />
        </mxCell>
        <mxCell id="PK2-CjucyVVqtXHw0Cxr-39" value="Teaches" style="shape=rhombus;perimeter=rhombusPerimeter;whiteSpace=wrap;html=1;align=center;" parent="1" vertex="1">
          <mxGeometry x="160" y="275" width="120" height="60" as="geometry" />
        </mxCell>
        <mxCell id="PK2-CjucyVVqtXHw0Cxr-40" value="" style="endArrow=none;html=1;rounded=0;entryX=1;entryY=0.5;entryDx=0;entryDy=0;exitX=0;exitY=0.5;exitDx=0;exitDy=0;" parent="1" source="PK2-CjucyVVqtXHw0Cxr-39" target="PK2-CjucyVVqtXHw0Cxr-1" edge="1">
          <mxGeometry relative="1" as="geometry">
            <mxPoint x="340" y="320" as="sourcePoint" />
            <mxPoint x="500" y="320" as="targetPoint" />
          </mxGeometry>
        </mxCell>
        <mxCell id="PK2-CjucyVVqtXHw0Cxr-41" value="1" style="resizable=0;html=1;whiteSpace=wrap;align=right;verticalAlign=bottom;" parent="PK2-CjucyVVqtXHw0Cxr-40" connectable="0" vertex="1">
          <mxGeometry x="1" relative="1" as="geometry">
            <mxPoint x="20" y="-5" as="offset" />
          </mxGeometry>
        </mxCell>
        <mxCell id="PK2-CjucyVVqtXHw0Cxr-42" value="" style="endArrow=none;html=1;rounded=0;exitX=1;exitY=0.5;exitDx=0;exitDy=0;entryX=0;entryY=0.5;entryDx=0;entryDy=0;" parent="1" source="PK2-CjucyVVqtXHw0Cxr-39" target="PK2-CjucyVVqtXHw0Cxr-38" edge="1">
          <mxGeometry relative="1" as="geometry">
            <mxPoint x="340" y="320" as="sourcePoint" />
            <mxPoint x="500" y="320" as="targetPoint" />
          </mxGeometry>
        </mxCell>
        <mxCell id="PK2-CjucyVVqtXHw0Cxr-43" value="N" style="resizable=0;html=1;whiteSpace=wrap;align=right;verticalAlign=bottom;" parent="PK2-CjucyVVqtXHw0Cxr-42" connectable="0" vertex="1">
          <mxGeometry x="1" relative="1" as="geometry">
            <mxPoint x="-10" as="offset" />
          </mxGeometry>
        </mxCell>
        <mxCell id="PK2-CjucyVVqtXHw0Cxr-51" value="&lt;u&gt;cId&lt;span style=&quot;color: rgba(0, 0, 0, 0); font-family: monospace; font-size: 0px; text-align: start; text-wrap: nowrap;&quot;&gt;%3CmxGraphModel%3E%3Croot%3E%3CmxCell%20id%3D%220%22%2F%3E%3CmxCell%20id%3D%221%22%20parent%3D%220%22%2F%3E%3CmxCell%20id%3D%222%22%20value%3D%22Professor%22%20style%3D%22whiteSpace%3Dwrap%3Bhtml%3D1%3Balign%3Dcenter%3B%22%20vertex%3D%221%22%20parent%3D%221%22%3E%3CmxGeometry%20x%3D%2280%22%20y%3D%22320%22%20width%3D%22100%22%20height%3D%2240%22%20as%3D%22geometry%22%2F%3E%3C%2FmxCell%3E%3CmxCell%20id%3D%223%22%20value%3D%22Email%22%20style%3D%22ellipse%3BwhiteSpace%3Dwrap%3Bhtml%3D1%3Balign%3Dcenter%3B%22%20vertex%3D%221%22%20parent%3D%221%22%3E%3CmxGeometry%20x%3D%22-120%22%20y%3D%22340%22%20width%3D%22100%22%20height%3D%2240%22%20as%3D%22geometry%22%2F%3E%3C%2FmxCell%3E%3CmxCell%20id%3D%224%22%20value%3D%22Family%22%20style%3D%22ellipse%3BwhiteSpace%3Dwrap%3Bhtml%3D1%3Balign%3Dcenter%3B%22%20vertex%3D%221%22%20parent%3D%221%22%3E%3CmxGeometry%20x%3D%2290%22%20y%3D%22440%22%20width%3D%22100%22%20height%3D%2240%22%20as%3D%22geometry%22%2F%3E%3C%2FmxCell%3E%3CmxCell%20id%3D%225%22%20value%3D%22Password%22%20style%3D%22ellipse%3BwhiteSpace%3Dwrap%3Bhtml%3D1%3Balign%3Dcenter%3B%22%20vertex%3D%221%22%20parent%3D%221%22%3E%3CmxGeometry%20x%3D%22-50%22%20y%3D%22210%22%20width%3D%22100%22%20height%3D%2240%22%20as%3D%22geometry%22%2F%3E%3C%2FmxCell%3E%3CmxCell%20id%3D%226%22%20value%3D%22%26lt%3Bu%26gt%3BpId%26lt%3B%2Fu%26gt%3B%22%20style%3D%22ellipse%3BwhiteSpace%3Dwrap%3Bhtml%3D1%3Balign%3Dcenter%3B%22%20vertex%3D%221%22%20parent%3D%221%22%3E%3CmxGeometry%20x%3D%22-110%22%20y%3D%22270%22%20width%3D%22100%22%20height%3D%2240%22%20as%3D%22geometry%22%2F%3E%3C%2FmxCell%3E%3CmxCell%20id%3D%227%22%20value%3D%22Name%22%20style%3D%22ellipse%3BwhiteSpace%3Dwrap%3Bhtml%3D1%3Balign%3Dcenter%3B%22%20vertex%3D%221%22%20parent%3D%221%22%3E%3CmxGeometry%20x%3D%22-110%22%20y%3D%22410%22%20width%3D%22100%22%20height%3D%2240%22%20as%3D%22geometry%22%2F%3E%3C%2FmxCell%3E%3CmxCell%20id%3D%228%22%20value%3D%22Phonenumber%22%20style%3D%22ellipse%3BwhiteSpace%3Dwrap%3Bhtml%3D1%3Balign%3Dcenter%3B%22%20vertex%3D%221%22%20parent%3D%221%22%3E%3CmxGeometry%20x%3D%22-20%22%20y%3D%22440%22%20width%3D%22100%22%20height%3D%2240%22%20as%3D%22geometry%22%2F%3E%3C%2FmxCell%3E%3CmxCell%20id%3D%229%22%20value%3D%22%22%20style%3D%22endArrow%3Dnone%3Bhtml%3D1%3Brounded%3D0%3B%22%20edge%3D%221%22%20source%3D%228%22%20target%3D%222%22%20parent%3D%221%22%3E%3CmxGeometry%20relative%3D%221%22%20as%3D%22geometry%22%3E%3CmxPoint%20x%3D%2280%22%20y%3D%22270%22%20as%3D%22sourcePoint%22%2F%3E%3CmxPoint%20x%3D%22240%22%20y%3D%22270%22%20as%3D%22targetPoint%22%2F%3E%3C%2FmxGeometry%3E%3C%2FmxCell%3E%3CmxCell%20id%3D%2210%22%20value%3D%22%22%20style%3D%22endArrow%3Dnone%3Bhtml%3D1%3Brounded%3D0%3B%22%20edge%3D%221%22%20source%3D%224%22%20target%3D%222%22%20parent%3D%221%22%3E%3CmxGeometry%20relative%3D%221%22%20as%3D%22geometry%22%3E%3CmxPoint%20x%3D%2220%22%20y%3D%22470%22%20as%3D%22sourcePoint%22%2F%3E%3CmxPoint%20x%3D%22180%22%20y%3D%22470%22%20as%3D%22targetPoint%22%2F%3E%3C%2FmxGeometry%3E%3C%2FmxCell%3E%3CmxCell%20id%3D%2211%22%20value%3D%22%22%20style%3D%22endArrow%3Dnone%3Bhtml%3D1%3Brounded%3D0%3BentryX%3D0.5%3BentryY%3D0%3BentryDx%3D0%3BentryDy%3D0%3B%22%20edge%3D%221%22%20source%3D%227%22%20target%3D%222%22%20parent%3D%221%22%3E%3CmxGeometry%20relative%3D%221%22%20as%3D%22geometry%22%3E%3CmxPoint%20y%3D%22209%22%20as%3D%22sourcePoint%22%2F%3E%3CmxPoint%20x%3D%22160%22%20y%3D%22209%22%20as%3D%22targetPoint%22%2F%3E%3C%2FmxGeometry%3E%3C%2FmxCell%3E%3CmxCell%20id%3D%2212%22%20value%3D%22%22%20style%3D%22endArrow%3Dnone%3Bhtml%3D1%3Brounded%3D0%3BentryX%3D0.677%3BentryY%3D-0.033%3BentryDx%3D0%3BentryDy%3D0%3BentryPerimeter%3D0%3B%22%20edge%3D%221%22%20source%3D%223%22%20target%3D%222%22%20parent%3D%221%22%3E%3CmxGeometry%20relative%3D%221%22%20as%3D%22geometry%22%3E%3CmxPoint%20x%3D%2250%22%20y%3D%22210%22%20as%3D%22sourcePoint%22%2F%3E%3CmxPoint%20x%3D%22210%22%20y%3D%22240%22%20as%3D%22targetPoint%22%2F%3E%3CArray%20as%3D%22points%22%2F%3E%3C%2FmxGeometry%3E%3C%2FmxCell%3E%3CmxCell%20id%3D%2213%22%20value%3D%22%22%20style%3D%22endArrow%3Dnone%3Bhtml%3D1%3Brounded%3D0%3BentryX%3D0.25%3BentryY%3D0%3BentryDx%3D0%3BentryDy%3D0%3B%22%20edge%3D%221%22%20source%3D%226%22%20target%3D%222%22%20parent%3D%221%22%3E%3CmxGeometry%20relative%3D%221%22%20as%3D%22geometry%22%3E%3CmxPoint%20x%3D%22220%22%20y%3D%22239.5%22%20as%3D%22sourcePoint%22%2F%3E%3CmxPoint%20x%3D%22380%22%20y%3D%22239.5%22%20as%3D%22targetPoint%22%2F%3E%3C%2FmxGeometry%3E%3C%2FmxCell%3E%3CmxCell%20id%3D%2214%22%20value%3D%22%22%20style%3D%22endArrow%3Dnone%3Bhtml%3D1%3Brounded%3D0%3BexitX%3D1%3BexitY%3D1%3BexitDx%3D0%3BexitDy%3D0%3BentryX%3D0.75%3BentryY%3D0%3BentryDx%3D0%3BentryDy%3D0%3B%22%20edge%3D%221%22%20source%3D%225%22%20target%3D%222%22%20parent%3D%221%22%3E%3CmxGeometry%20relative%3D%221%22%20as%3D%22geometry%22%3E%3CmxPoint%20x%3D%22130%22%20y%3D%22200%22%20as%3D%22sourcePoint%22%2F%3E%3CmxPoint%20x%3D%22290%22%20y%3D%22200%22%20as%3D%22targetPoint%22%2F%3E%3C%2FmxGeometry%3E%3C%2FmxCell%3E%3C%2Froot%3E%3C%2FmxGraphModel%3E&lt;/span&gt;&lt;/u&gt;" style="ellipse;whiteSpace=wrap;html=1;align=center;" parent="1" vertex="1">
          <mxGeometry x="200" y="210" width="100" height="40" as="geometry" />
        </mxCell>
        <mxCell id="PK2-CjucyVVqtXHw0Cxr-52" value="Title" style="ellipse;whiteSpace=wrap;html=1;align=center;" parent="1" vertex="1">
          <mxGeometry x="230" y="160" width="100" height="40" as="geometry" />
        </mxCell>
        <mxCell id="PK2-CjucyVVqtXHw0Cxr-53" value="Department" style="ellipse;whiteSpace=wrap;html=1;align=center;" parent="1" vertex="1">
          <mxGeometry x="520" y="210" width="100" height="40" as="geometry" />
        </mxCell>
        <mxCell id="PK2-CjucyVVqtXHw0Cxr-54" value="Semester" style="ellipse;whiteSpace=wrap;html=1;align=center;" parent="1" vertex="1">
          <mxGeometry x="480" y="160" width="100" height="40" as="geometry" />
        </mxCell>
        <mxCell id="PK2-CjucyVVqtXHw0Cxr-55" value="" style="endArrow=none;html=1;rounded=0;exitX=0.75;exitY=0;exitDx=0;exitDy=0;entryX=0;entryY=1;entryDx=0;entryDy=0;" parent="1" source="PK2-CjucyVVqtXHw0Cxr-38" target="PK2-CjucyVVqtXHw0Cxr-54" edge="1">
          <mxGeometry relative="1" as="geometry">
            <mxPoint x="330" y="69" as="sourcePoint" />
            <mxPoint x="490" y="69" as="targetPoint" />
          </mxGeometry>
        </mxCell>
        <mxCell id="PK2-CjucyVVqtXHw0Cxr-56" value="" style="endArrow=none;html=1;rounded=0;exitX=1;exitY=0;exitDx=0;exitDy=0;entryX=0;entryY=1;entryDx=0;entryDy=0;" parent="1" source="PK2-CjucyVVqtXHw0Cxr-38" target="PK2-CjucyVVqtXHw0Cxr-53" edge="1">
          <mxGeometry relative="1" as="geometry">
            <mxPoint x="320" y="69" as="sourcePoint" />
            <mxPoint x="480" y="69" as="targetPoint" />
          </mxGeometry>
        </mxCell>
        <mxCell id="PK2-CjucyVVqtXHw0Cxr-57" value="" style="endArrow=none;html=1;rounded=0;entryX=0.25;entryY=0;entryDx=0;entryDy=0;exitX=0.5;exitY=1;exitDx=0;exitDy=0;" parent="1" source="PK2-CjucyVVqtXHw0Cxr-52" target="PK2-CjucyVVqtXHw0Cxr-38" edge="1">
          <mxGeometry relative="1" as="geometry">
            <mxPoint x="300" y="60" as="sourcePoint" />
            <mxPoint x="490" y="60" as="targetPoint" />
          </mxGeometry>
        </mxCell>
        <mxCell id="PK2-CjucyVVqtXHw0Cxr-58" value="" style="endArrow=none;html=1;rounded=0;entryX=0;entryY=0;entryDx=0;entryDy=0;exitX=1;exitY=1;exitDx=0;exitDy=0;" parent="1" source="PK2-CjucyVVqtXHw0Cxr-51" target="PK2-CjucyVVqtXHw0Cxr-38" edge="1">
          <mxGeometry relative="1" as="geometry">
            <mxPoint x="320" y="79.5" as="sourcePoint" />
            <mxPoint x="480" y="79.5" as="targetPoint" />
          </mxGeometry>
        </mxCell>
        <mxCell id="PK2-CjucyVVqtXHw0Cxr-59" value="File" style="shape=ext;margin=3;double=1;whiteSpace=wrap;html=1;align=center;" parent="1" vertex="1">
          <mxGeometry x="350" y="30" width="100" height="40" as="geometry" />
        </mxCell>
        <mxCell id="PK2-CjucyVVqtXHw0Cxr-78" value="Can Have" style="shape=rhombus;double=1;perimeter=rhombusPerimeter;whiteSpace=wrap;html=1;align=center;" parent="1" vertex="1">
          <mxGeometry x="340" y="120" width="120" height="60" as="geometry" />
        </mxCell>
        <mxCell id="PK2-CjucyVVqtXHw0Cxr-79" value="Title" style="ellipse;whiteSpace=wrap;html=1;align=center;" parent="1" vertex="1">
          <mxGeometry x="310" y="-60" width="100" height="40" as="geometry" />
        </mxCell>
        <mxCell id="PK2-CjucyVVqtXHw0Cxr-80" style="edgeStyle=none;rounded=0;orthogonalLoop=1;jettySize=auto;html=1;exitX=0.5;exitY=0;exitDx=0;exitDy=0;" parent="1" edge="1">
          <mxGeometry relative="1" as="geometry">
            <mxPoint x="230" y="590" as="sourcePoint" />
            <mxPoint x="230" y="590" as="targetPoint" />
          </mxGeometry>
        </mxCell>
        <mxCell id="PK2-CjucyVVqtXHw0Cxr-81" value="&lt;span style=&quot;border-bottom: 1px dotted&quot;&gt;fId&lt;/span&gt;" style="ellipse;whiteSpace=wrap;html=1;align=center;" parent="1" vertex="1">
          <mxGeometry x="210" y="-20" width="100" height="40" as="geometry" />
        </mxCell>
        <mxCell id="PK2-CjucyVVqtXHw0Cxr-82" value="Link" style="ellipse;whiteSpace=wrap;html=1;align=center;" parent="1" vertex="1">
          <mxGeometry x="440" y="-60" width="100" height="40" as="geometry" />
        </mxCell>
        <mxCell id="PK2-CjucyVVqtXHw0Cxr-87" value="" style="endArrow=none;html=1;rounded=0;exitX=0.5;exitY=1;exitDx=0;exitDy=0;entryX=0.5;entryY=0;entryDx=0;entryDy=0;" parent="1" source="PK2-CjucyVVqtXHw0Cxr-78" target="PK2-CjucyVVqtXHw0Cxr-38" edge="1">
          <mxGeometry relative="1" as="geometry">
            <mxPoint x="340" y="280" as="sourcePoint" />
            <mxPoint x="500" y="280" as="targetPoint" />
          </mxGeometry>
        </mxCell>
        <mxCell id="PK2-CjucyVVqtXHw0Cxr-88" value="1" style="resizable=0;html=1;whiteSpace=wrap;align=right;verticalAlign=bottom;" parent="PK2-CjucyVVqtXHw0Cxr-87" connectable="0" vertex="1">
          <mxGeometry x="1" relative="1" as="geometry">
            <mxPoint x="-10" y="-15" as="offset" />
          </mxGeometry>
        </mxCell>
        <mxCell id="PK2-CjucyVVqtXHw0Cxr-89" value="" style="endArrow=none;html=1;rounded=0;entryX=0.5;entryY=1;entryDx=0;entryDy=0;exitX=0.5;exitY=0;exitDx=0;exitDy=0;" parent="1" source="PK2-CjucyVVqtXHw0Cxr-78" target="PK2-CjucyVVqtXHw0Cxr-59" edge="1">
          <mxGeometry relative="1" as="geometry">
            <mxPoint x="340" y="280" as="sourcePoint" />
            <mxPoint x="500" y="280" as="targetPoint" />
          </mxGeometry>
        </mxCell>
        <mxCell id="PK2-CjucyVVqtXHw0Cxr-90" value="N" style="resizable=0;html=1;whiteSpace=wrap;align=right;verticalAlign=bottom;" parent="PK2-CjucyVVqtXHw0Cxr-89" connectable="0" vertex="1">
          <mxGeometry x="1" relative="1" as="geometry">
            <mxPoint x="-10" y="30" as="offset" />
          </mxGeometry>
        </mxCell>
        <mxCell id="PK2-CjucyVVqtXHw0Cxr-91" value="" style="endArrow=none;html=1;rounded=0;entryX=0;entryY=0;entryDx=0;entryDy=0;exitX=1;exitY=1;exitDx=0;exitDy=0;" parent="1" source="PK2-CjucyVVqtXHw0Cxr-81" target="PK2-CjucyVVqtXHw0Cxr-59" edge="1">
          <mxGeometry relative="1" as="geometry">
            <mxPoint x="110" y="60" as="sourcePoint" />
            <mxPoint x="270" y="60" as="targetPoint" />
          </mxGeometry>
        </mxCell>
        <mxCell id="PK2-CjucyVVqtXHw0Cxr-92" value="" style="endArrow=none;html=1;rounded=0;entryX=0.5;entryY=1;entryDx=0;entryDy=0;" parent="1" source="PK2-CjucyVVqtXHw0Cxr-59" target="PK2-CjucyVVqtXHw0Cxr-79" edge="1">
          <mxGeometry relative="1" as="geometry">
            <mxPoint x="340" y="90" as="sourcePoint" />
            <mxPoint x="500" y="90" as="targetPoint" />
          </mxGeometry>
        </mxCell>
        <mxCell id="PK2-CjucyVVqtXHw0Cxr-93" value="" style="endArrow=none;html=1;rounded=0;exitX=1;exitY=0;exitDx=0;exitDy=0;entryX=0.5;entryY=1;entryDx=0;entryDy=0;" parent="1" source="PK2-CjucyVVqtXHw0Cxr-59" target="PK2-CjucyVVqtXHw0Cxr-82" edge="1">
          <mxGeometry relative="1" as="geometry">
            <mxPoint x="340" y="90" as="sourcePoint" />
            <mxPoint x="500" y="90" as="targetPoint" />
          </mxGeometry>
        </mxCell>
        <mxCell id="r06YSIzn6cZQNPrv04_l-3" value="cId" style="ellipse;whiteSpace=wrap;html=1;align=center;" parent="1" vertex="1">
          <mxGeometry x="550" y="-10" width="100" height="40" as="geometry" />
        </mxCell>
        <mxCell id="r06YSIzn6cZQNPrv04_l-4" value="" style="endArrow=none;html=1;rounded=0;entryX=0;entryY=1;entryDx=0;entryDy=0;exitX=1;exitY=0.5;exitDx=0;exitDy=0;" parent="1" source="PK2-CjucyVVqtXHw0Cxr-59" target="r06YSIzn6cZQNPrv04_l-3" edge="1">
          <mxGeometry relative="1" as="geometry">
            <mxPoint x="360" y="250" as="sourcePoint" />
            <mxPoint x="520" y="250" as="targetPoint" />
          </mxGeometry>
        </mxCell>
        <mxCell id="r06YSIzn6cZQNPrv04_l-6" value="&lt;u&gt;pId&lt;/u&gt;" style="ellipse;whiteSpace=wrap;html=1;align=center;" parent="1" vertex="1">
          <mxGeometry x="220" y="370" width="100" height="40" as="geometry" />
        </mxCell>
        <mxCell id="r06YSIzn6cZQNPrv04_l-7" value="" style="endArrow=none;html=1;rounded=0;entryX=1;entryY=0;entryDx=0;entryDy=0;exitX=0;exitY=1;exitDx=0;exitDy=0;" parent="1" source="PK2-CjucyVVqtXHw0Cxr-38" target="r06YSIzn6cZQNPrv04_l-6" edge="1">
          <mxGeometry relative="1" as="geometry">
            <mxPoint x="290" y="260" as="sourcePoint" />
            <mxPoint x="450" y="260" as="targetPoint" />
          </mxGeometry>
        </mxCell>
        <mxCell id="r06YSIzn6cZQNPrv04_l-10" value="Registration" style="shape=associativeEntity;whiteSpace=wrap;html=1;align=center;" parent="1" vertex="1">
          <mxGeometry x="690" y="287.5" width="140" height="60" as="geometry" />
        </mxCell>
        <mxCell id="r06YSIzn6cZQNPrv04_l-12" value="sId" style="ellipse;whiteSpace=wrap;html=1;align=center;fontStyle=4;" parent="1" vertex="1">
          <mxGeometry x="650" y="395" width="100" height="40" as="geometry" />
        </mxCell>
        <mxCell id="r06YSIzn6cZQNPrv04_l-15" value="" style="endArrow=none;html=1;rounded=0;entryX=0.325;entryY=0.999;entryDx=0;entryDy=0;exitX=0.5;exitY=0;exitDx=0;exitDy=0;entryPerimeter=0;" parent="1" source="r06YSIzn6cZQNPrv04_l-12" target="r06YSIzn6cZQNPrv04_l-10" edge="1">
          <mxGeometry relative="1" as="geometry">
            <mxPoint x="630" y="372.5" as="sourcePoint" />
            <mxPoint x="760" y="442.5" as="targetPoint" />
          </mxGeometry>
        </mxCell>
        <mxCell id="r06YSIzn6cZQNPrv04_l-17" value="" style="endArrow=none;html=1;rounded=0;entryX=0.75;entryY=1;entryDx=0;entryDy=0;exitX=0.405;exitY=-0.013;exitDx=0;exitDy=0;exitPerimeter=0;" parent="1" source="r06YSIzn6cZQNPrv04_l-32" target="r06YSIzn6cZQNPrv04_l-10" edge="1">
          <mxGeometry relative="1" as="geometry">
            <mxPoint x="830" y="395" as="sourcePoint" />
            <mxPoint x="760" y="442.5" as="targetPoint" />
          </mxGeometry>
        </mxCell>
        <mxCell id="r06YSIzn6cZQNPrv04_l-20" value="Can Have" style="shape=rhombus;perimeter=rhombusPerimeter;whiteSpace=wrap;html=1;align=center;" parent="1" vertex="1">
          <mxGeometry x="500" y="295" width="120" height="60" as="geometry" />
        </mxCell>
        <mxCell id="r06YSIzn6cZQNPrv04_l-21" value="" style="endArrow=none;html=1;rounded=0;entryX=1;entryY=0.5;entryDx=0;entryDy=0;exitX=0;exitY=0.5;exitDx=0;exitDy=0;" parent="1" source="r06YSIzn6cZQNPrv04_l-20" target="PK2-CjucyVVqtXHw0Cxr-38" edge="1">
          <mxGeometry relative="1" as="geometry">
            <mxPoint x="510" y="450" as="sourcePoint" />
            <mxPoint x="670" y="450" as="targetPoint" />
          </mxGeometry>
        </mxCell>
        <mxCell id="r06YSIzn6cZQNPrv04_l-22" value="1" style="resizable=0;html=1;whiteSpace=wrap;align=right;verticalAlign=bottom;" parent="r06YSIzn6cZQNPrv04_l-21" connectable="0" vertex="1">
          <mxGeometry x="1" relative="1" as="geometry">
            <mxPoint x="20" y="5" as="offset" />
          </mxGeometry>
        </mxCell>
        <mxCell id="r06YSIzn6cZQNPrv04_l-23" value="" style="endArrow=none;html=1;rounded=0;entryX=0;entryY=0.5;entryDx=0;entryDy=0;exitX=1;exitY=0.5;exitDx=0;exitDy=0;" parent="1" source="r06YSIzn6cZQNPrv04_l-20" target="r06YSIzn6cZQNPrv04_l-10" edge="1">
          <mxGeometry relative="1" as="geometry">
            <mxPoint x="510" y="450" as="sourcePoint" />
            <mxPoint x="670" y="450" as="targetPoint" />
          </mxGeometry>
        </mxCell>
        <mxCell id="r06YSIzn6cZQNPrv04_l-24" value="N" style="resizable=0;html=1;whiteSpace=wrap;align=right;verticalAlign=bottom;" parent="r06YSIzn6cZQNPrv04_l-23" connectable="0" vertex="1">
          <mxGeometry x="1" relative="1" as="geometry">
            <mxPoint x="-10" y="3" as="offset" />
          </mxGeometry>
        </mxCell>
        <mxCell id="r06YSIzn6cZQNPrv04_l-25" value="Can do" style="shape=rhombus;perimeter=rhombusPerimeter;whiteSpace=wrap;html=1;align=center;" parent="1" vertex="1">
          <mxGeometry x="950" y="272.5" width="120" height="60" as="geometry" />
        </mxCell>
        <mxCell id="r06YSIzn6cZQNPrv04_l-26" value="" style="endArrow=none;html=1;rounded=0;entryX=0;entryY=0.5;entryDx=0;entryDy=0;exitX=1;exitY=0.5;exitDx=0;exitDy=0;" parent="1" source="r06YSIzn6cZQNPrv04_l-25" target="PK2-CjucyVVqtXHw0Cxr-23" edge="1">
          <mxGeometry relative="1" as="geometry">
            <mxPoint x="720" y="442.5" as="sourcePoint" />
            <mxPoint x="880" y="442.5" as="targetPoint" />
          </mxGeometry>
        </mxCell>
        <mxCell id="r06YSIzn6cZQNPrv04_l-27" value="1" style="resizable=0;html=1;whiteSpace=wrap;align=right;verticalAlign=bottom;" parent="r06YSIzn6cZQNPrv04_l-26" connectable="0" vertex="1">
          <mxGeometry x="1" relative="1" as="geometry">
            <mxPoint x="-10" y="2" as="offset" />
          </mxGeometry>
        </mxCell>
        <mxCell id="r06YSIzn6cZQNPrv04_l-28" value="" style="endArrow=none;html=1;rounded=0;exitX=0;exitY=0.5;exitDx=0;exitDy=0;entryX=1;entryY=0.5;entryDx=0;entryDy=0;" parent="1" source="r06YSIzn6cZQNPrv04_l-25" target="r06YSIzn6cZQNPrv04_l-10" edge="1">
          <mxGeometry relative="1" as="geometry">
            <mxPoint x="720" y="442.5" as="sourcePoint" />
            <mxPoint x="900" y="310" as="targetPoint" />
          </mxGeometry>
        </mxCell>
        <mxCell id="r06YSIzn6cZQNPrv04_l-29" value="N" style="resizable=0;html=1;whiteSpace=wrap;align=right;verticalAlign=bottom;" parent="r06YSIzn6cZQNPrv04_l-28" connectable="0" vertex="1">
          <mxGeometry x="1" relative="1" as="geometry">
            <mxPoint x="20" y="-8" as="offset" />
          </mxGeometry>
        </mxCell>
        <mxCell id="r06YSIzn6cZQNPrv04_l-32" value="cId" style="ellipse;whiteSpace=wrap;html=1;align=center;fontStyle=4;" parent="1" vertex="1">
          <mxGeometry x="790" y="395" width="100" height="40" as="geometry" />
        </mxCell>
        <mxCell id="AHqPBcClds4J2PvNQFJD-1" value="Registration Request" style="shape=associativeEntity;whiteSpace=wrap;html=1;align=center;" parent="1" vertex="1">
          <mxGeometry x="780" y="530" width="140" height="60" as="geometry" />
        </mxCell>
        <mxCell id="AHqPBcClds4J2PvNQFJD-2" value="sId" style="ellipse;whiteSpace=wrap;html=1;align=center;fontStyle=4;" parent="1" vertex="1">
          <mxGeometry x="750" y="620" width="100" height="40" as="geometry" />
        </mxCell>
        <mxCell id="AHqPBcClds4J2PvNQFJD-4" value="" style="endArrow=none;html=1;rounded=0;entryX=0.25;entryY=1;entryDx=0;entryDy=0;exitX=0.5;exitY=0;exitDx=0;exitDy=0;" parent="1" source="AHqPBcClds4J2PvNQFJD-2" target="AHqPBcClds4J2PvNQFJD-1" edge="1">
          <mxGeometry relative="1" as="geometry">
            <mxPoint x="850" y="370" as="sourcePoint" />
            <mxPoint x="1010" y="370" as="targetPoint" />
          </mxGeometry>
        </mxCell>
        <mxCell id="AHqPBcClds4J2PvNQFJD-5" value="" style="endArrow=none;html=1;rounded=0;entryX=0.5;entryY=0;entryDx=0;entryDy=0;exitX=0.75;exitY=1;exitDx=0;exitDy=0;" parent="1" source="AHqPBcClds4J2PvNQFJD-1" target="AHqPBcClds4J2PvNQFJD-16" edge="1">
          <mxGeometry relative="1" as="geometry">
            <mxPoint x="850" y="370" as="sourcePoint" />
            <mxPoint x="910" y="620" as="targetPoint" />
          </mxGeometry>
        </mxCell>
        <mxCell id="AHqPBcClds4J2PvNQFJD-6" value="Can Request" style="shape=rhombus;perimeter=rhombusPerimeter;whiteSpace=wrap;html=1;align=center;" parent="1" vertex="1">
          <mxGeometry x="940" y="425" width="120" height="60" as="geometry" />
        </mxCell>
        <mxCell id="AHqPBcClds4J2PvNQFJD-7" value="" style="endArrow=none;html=1;rounded=0;entryX=0.25;entryY=1;entryDx=0;entryDy=0;" parent="1" target="PK2-CjucyVVqtXHw0Cxr-23" edge="1">
          <mxGeometry relative="1" as="geometry">
            <mxPoint x="1060" y="450" as="sourcePoint" />
            <mxPoint x="1110" y="337.5" as="targetPoint" />
          </mxGeometry>
        </mxCell>
        <mxCell id="AHqPBcClds4J2PvNQFJD-8" value="1" style="resizable=0;html=1;whiteSpace=wrap;align=right;verticalAlign=bottom;" parent="AHqPBcClds4J2PvNQFJD-7" connectable="0" vertex="1">
          <mxGeometry x="1" relative="1" as="geometry">
            <mxPoint x="-15" y="25" as="offset" />
          </mxGeometry>
        </mxCell>
        <mxCell id="AHqPBcClds4J2PvNQFJD-9" value="" style="endArrow=none;html=1;rounded=0;entryX=1;entryY=0;entryDx=0;entryDy=0;exitX=0;exitY=0.5;exitDx=0;exitDy=0;" parent="1" source="AHqPBcClds4J2PvNQFJD-6" target="AHqPBcClds4J2PvNQFJD-1" edge="1">
          <mxGeometry relative="1" as="geometry">
            <mxPoint x="850" y="370" as="sourcePoint" />
            <mxPoint x="1010" y="370" as="targetPoint" />
          </mxGeometry>
        </mxCell>
        <mxCell id="AHqPBcClds4J2PvNQFJD-10" value="N" style="resizable=0;html=1;whiteSpace=wrap;align=right;verticalAlign=bottom;" parent="AHqPBcClds4J2PvNQFJD-9" connectable="0" vertex="1">
          <mxGeometry x="1" relative="1" as="geometry">
            <mxPoint y="-10" as="offset" />
          </mxGeometry>
        </mxCell>
        <mxCell id="AHqPBcClds4J2PvNQFJD-11" value="Can Have" style="shape=rhombus;perimeter=rhombusPerimeter;whiteSpace=wrap;html=1;align=center;" parent="1" vertex="1">
          <mxGeometry x="540" y="445" width="120" height="60" as="geometry" />
        </mxCell>
        <mxCell id="AHqPBcClds4J2PvNQFJD-12" value="" style="endArrow=none;html=1;rounded=0;entryX=1;entryY=1;entryDx=0;entryDy=0;exitX=0;exitY=0.5;exitDx=0;exitDy=0;" parent="1" source="AHqPBcClds4J2PvNQFJD-11" target="PK2-CjucyVVqtXHw0Cxr-38" edge="1">
          <mxGeometry relative="1" as="geometry">
            <mxPoint x="850" y="370" as="sourcePoint" />
            <mxPoint x="1010" y="370" as="targetPoint" />
          </mxGeometry>
        </mxCell>
        <mxCell id="AHqPBcClds4J2PvNQFJD-13" value="1" style="resizable=0;html=1;whiteSpace=wrap;align=right;verticalAlign=bottom;" parent="AHqPBcClds4J2PvNQFJD-12" connectable="0" vertex="1">
          <mxGeometry x="1" relative="1" as="geometry">
            <mxPoint y="30" as="offset" />
          </mxGeometry>
        </mxCell>
        <mxCell id="AHqPBcClds4J2PvNQFJD-14" value="" style="endArrow=none;html=1;rounded=0;entryX=0;entryY=0;entryDx=0;entryDy=0;exitX=1;exitY=0.5;exitDx=0;exitDy=0;" parent="1" source="AHqPBcClds4J2PvNQFJD-11" target="AHqPBcClds4J2PvNQFJD-1" edge="1">
          <mxGeometry relative="1" as="geometry">
            <mxPoint x="850" y="370" as="sourcePoint" />
            <mxPoint x="1010" y="370" as="targetPoint" />
          </mxGeometry>
        </mxCell>
        <mxCell id="AHqPBcClds4J2PvNQFJD-15" value="N" style="resizable=0;html=1;whiteSpace=wrap;align=right;verticalAlign=bottom;" parent="AHqPBcClds4J2PvNQFJD-14" connectable="0" vertex="1">
          <mxGeometry x="1" relative="1" as="geometry">
            <mxPoint y="-10" as="offset" />
          </mxGeometry>
        </mxCell>
        <mxCell id="AHqPBcClds4J2PvNQFJD-16" value="cId" style="ellipse;whiteSpace=wrap;html=1;align=center;fontStyle=4;" parent="1" vertex="1">
          <mxGeometry x="860" y="620" width="100" height="40" as="geometry" />
        </mxCell>
      </root>
    </mxGraphModel>
  </diagram>
</mxfile>
